<svg id="_Icon_S-placeholder" data-name="🖼 Icon/S-placeholder" xmlns="http://www.w3.org/2000/svg" width="48" height="48" viewBox="0 0 48 48">
  <rect id="bounds" width="48" height="48" fill="rgba(28,143,248,0.34)" opacity="0"/>
  <g id="trash-2" transform="translate(10 9)">
    <path id="Shape" d="M0,0H28" transform="translate(0 6.2)" fill="none" stroke="#fff" stroke-linecap="round" stroke-linejoin="round" stroke-miterlimit="10" stroke-width="3"/>
    <path id="Path" d="M21.778,0V21.7a3.106,3.106,0,0,1-3.111,3.1H3.111A3.106,3.106,0,0,1,0,21.7V0" transform="translate(3.111 6.2)" fill="none" stroke="#fff" stroke-linecap="round" stroke-linejoin="round" stroke-miterlimit="10" stroke-width="3"/>
    <path id="Path-2" data-name="Path" d="M0,6.2V3.1A3.106,3.106,0,0,1,3.111,0H9.333a3.106,3.106,0,0,1,3.111,3.1V6.2" transform="translate(7.778)" fill="none" stroke="#fff" stroke-linecap="round" stroke-linejoin="round" stroke-miterlimit="10" stroke-width="3"/>
    <path id="Shape-2" data-name="Shape" d="M0,0V9.3" transform="translate(10.889 13.95)" fill="none" stroke="#fff" stroke-linecap="round" stroke-linejoin="round" stroke-miterlimit="10" stroke-width="3"/>
    <path id="Shape-3" data-name="Shape" d="M0,0V9.3" transform="translate(17.111 13.95)" fill="none" stroke="#fff" stroke-linecap="round" stroke-linejoin="round" stroke-miterlimit="10" stroke-width="3"/>
  </g>
</svg>
